<svg width="30" height="30" viewBox="0 0 30 30" fill="none" xmlns="http://www.w3.org/2000/svg">
<path d="M21.25 15C21.25 16.2361 20.8834 17.4445 20.1967 18.4723C19.5099 19.5001 18.5338 20.3012 17.3918 20.7742C16.2497 21.2473 14.9931 21.3711 13.7807 21.1299C12.5683 20.8888 11.4547 20.2935 10.5806 19.4194C9.70651 18.5453 9.11125 17.4317 8.87009 16.2193C8.62894 15.0069 8.75271 13.7503 9.22576 12.6082C9.6988 11.4662 10.4999 10.4901 11.5277 9.80331C12.5555 9.11656 13.7639 8.75 15 8.75" stroke="black" stroke-width="1.5" stroke-linecap="round" stroke-linejoin="round"/>
<path d="M17.5 2.75C16.6917 2.585 15.8583 2.50167 15 2.5C8.09625 2.5 2.5 8.09625 2.5 15C2.5 21.9037 8.09625 27.5 15 27.5C21.9037 27.5 27.5 21.9037 27.5 15C27.4983 14.1417 27.415 13.3083 27.25 12.5" stroke="black" stroke-width="1.5" stroke-linecap="round" stroke-linejoin="round"/>
<path d="M15.0375 14.9525L20.7287 9.26125M24.675 5.43125L23.9837 2.94625C23.9561 2.85158 23.9055 2.76518 23.8366 2.6947C23.7676 2.62422 23.6823 2.57183 23.5882 2.54217C23.4942 2.51251 23.3943 2.50649 23.2973 2.52464C23.2004 2.54279 23.1094 2.58456 23.0325 2.64625C21.2375 4.1125 19.2825 6.08875 20.8787 9.205C24.0962 10.705 25.9337 8.6825 27.3412 6.98125C27.4049 6.90289 27.448 6.8099 27.4667 6.71068C27.4854 6.61147 27.4791 6.50915 27.4483 6.41299C27.4176 6.31683 27.3633 6.22986 27.2905 6.15993C27.2177 6.09001 27.1286 6.03933 27.0312 6.0125L24.675 5.43125Z" stroke="black" stroke-width="1.5" stroke-linecap="round" stroke-linejoin="round"/>
</svg>
